<svg xmlns="http://www.w3.org/2000/svg" xmlns:xlink="http://www.w3.org/1999/xlink" viewBox="0 0 24 24" version="1.1" x="0px" y="0px"><g stroke="none" stroke-width="1" fill="none" fill-rule="evenodd"><path d="M6.69982327,5.10977025 L11.9999365,10.4097488 L17.3001767,5.10977025 C17.4465371,4.96340992 17.6838341,4.96340992 17.8301944,5.10977025 L18.8902297,6.1698056 C19.0365901,6.31616594 19.0365901,6.55346293 18.8902297,6.69982327 L13.5899368,11.9999365 L18.8902297,17.3001767 C19.0365901,17.4465371 19.0365901,17.6838341 18.8902297,17.8301944 L17.8301944,18.8902297 C17.6838341,19.0365901 17.4465371,19.0365901 17.3001767,18.8902297 L11.9999365,13.5899368 L6.69982327,18.8902297 C6.55346293,19.0365901 6.31616594,19.0365901 6.1698056,18.8902297 L5.10977025,17.8301944 C4.96340992,17.6838341 4.96340992,17.4465371 5.10977025,17.3001767 L10.4097488,11.9999365 L5.10977025,6.69982327 C4.96340992,6.55346293 4.96340992,6.31616594 5.10977025,6.1698056 L6.1698056,5.10977025 C6.31616594,4.96340992 6.55346293,4.96340992 6.69982327,5.10977025 Z" fill="#000000"/></g></svg>